<svg xmlns="http://www.w3.org/2000/svg" viewBox="0 0 1920 1080" width="1920" height="1080" preserveAspectRatio="xMidYMid slice">
<!-- IMAGE DE SUBSTITUTION (ScolaRead) : étudiante souriante devant un bâtiment universitaire, livres à la main (16:9, sujet à droite). À remplacer par la photo définitive, mêmes proportions (voir README.md). -->
<defs><linearGradient id="c" x1="0" y1="0" x2="0" y2="1"><stop offset="0" stop-color="#9cc3dd"/><stop offset="1" stop-color="#e8f0f2"/></linearGradient></defs><rect width="1920" height="1080" fill="url(#c)"/><rect x="700" y="120" width="820" height="760" fill="#d9dde0"/><rect x="704.0" y="124.0" width="83.1" height="100.6" fill="#6f8fa6"/><rect x="704.0" y="232.6" width="83.1" height="100.6" fill="#a9c3d3"/><rect x="704.0" y="341.1" width="83.1" height="100.6" fill="#8fb0c4"/><rect x="704.0" y="449.7" width="83.1" height="100.6" fill="#6f8fa6"/><rect x="704.0" y="558.3" width="83.1" height="100.6" fill="#5c7a8f"/><rect x="704.0" y="666.9" width="83.1" height="100.6" fill="#5c7a8f"/><rect x="704.0" y="775.4" width="83.1" height="100.6" fill="#8fb0c4"/><rect x="795.1" y="124.0" width="83.1" height="100.6" fill="#a9c3d3"/><rect x="795.1" y="232.6" width="83.1" height="100.6" fill="#a9c3d3"/><rect x="795.1" y="341.1" width="83.1" height="100.6" fill="#5c7a8f"/><rect x="795.1" y="449.7" width="83.1" height="100.6" fill="#5c7a8f"/><rect x="795.1" y="558.3" width="83.1" height="100.6" fill="#5c7a8f"/><rect x="795.1" y="666.9" width="83.1" height="100.6" fill="#a9c3d3"/><rect x="795.1" y="775.4" width="83.1" height="100.6" fill="#6f8fa6"/><rect x="886.2" y="124.0" width="83.1" height="100.6" fill="#8fb0c4"/><rect x="886.2" y="232.6" width="83.1" height="100.6" fill="#5c7a8f"/><rect x="886.2" y="341.1" width="83.1" height="100.6" fill="#5c7a8f"/><rect x="886.2" y="449.7" width="83.1" height="100.6" fill="#6f8fa6"/><rect x="886.2" y="558.3" width="83.1" height="100.6" fill="#5c7a8f"/><rect x="886.2" y="666.9" width="83.1" height="100.6" fill="#8fb0c4"/><rect x="886.2" y="775.4" width="83.1" height="100.6" fill="#a9c3d3"/><rect x="977.3" y="124.0" width="83.1" height="100.6" fill="#a9c3d3"/><rect x="977.3" y="232.6" width="83.1" height="100.6" fill="#6f8fa6"/><rect x="977.3" y="341.1" width="83.1" height="100.6" fill="#5c7a8f"/><rect x="977.3" y="449.7" width="83.1" height="100.6" fill="#a9c3d3"/><rect x="977.3" y="558.3" width="83.1" height="100.6" fill="#5c7a8f"/><rect x="977.3" y="666.9" width="83.1" height="100.6" fill="#5c7a8f"/><rect x="977.3" y="775.4" width="83.1" height="100.6" fill="#5c7a8f"/><rect x="1068.4" y="124.0" width="83.1" height="100.6" fill="#a9c3d3"/><rect x="1068.4" y="232.6" width="83.1" height="100.6" fill="#a9c3d3"/><rect x="1068.4" y="341.1" width="83.1" height="100.6" fill="#8fb0c4"/><rect x="1068.4" y="449.7" width="83.1" height="100.6" fill="#8fb0c4"/><rect x="1068.4" y="558.3" width="83.1" height="100.6" fill="#a9c3d3"/><rect x="1068.4" y="666.9" width="83.1" height="100.6" fill="#8fb0c4"/><rect x="1068.4" y="775.4" width="83.1" height="100.6" fill="#6f8fa6"/><rect x="1159.6" y="124.0" width="83.1" height="100.6" fill="#8fb0c4"/><rect x="1159.6" y="232.6" width="83.1" height="100.6" fill="#8fb0c4"/><rect x="1159.6" y="341.1" width="83.1" height="100.6" fill="#8fb0c4"/><rect x="1159.6" y="449.7" width="83.1" height="100.6" fill="#a9c3d3"/><rect x="1159.6" y="558.3" width="83.1" height="100.6" fill="#5c7a8f"/><rect x="1159.6" y="666.9" width="83.1" height="100.6" fill="#5c7a8f"/><rect x="1159.6" y="775.4" width="83.1" height="100.6" fill="#a9c3d3"/><rect x="1250.7" y="124.0" width="83.1" height="100.6" fill="#6f8fa6"/><rect x="1250.7" y="232.6" width="83.1" height="100.6" fill="#8fb0c4"/><rect x="1250.7" y="341.1" width="83.1" height="100.6" fill="#5c7a8f"/><rect x="1250.7" y="449.7" width="83.1" height="100.6" fill="#5c7a8f"/><rect x="1250.7" y="558.3" width="83.1" height="100.6" fill="#8fb0c4"/><rect x="1250.7" y="666.9" width="83.1" height="100.6" fill="#6f8fa6"/><rect x="1250.7" y="775.4" width="83.1" height="100.6" fill="#a9c3d3"/><rect x="1341.8" y="124.0" width="83.1" height="100.6" fill="#6f8fa6"/><rect x="1341.8" y="232.6" width="83.1" height="100.6" fill="#8fb0c4"/><rect x="1341.8" y="341.1" width="83.1" height="100.6" fill="#8fb0c4"/><rect x="1341.8" y="449.7" width="83.1" height="100.6" fill="#5c7a8f"/><rect x="1341.8" y="558.3" width="83.1" height="100.6" fill="#a9c3d3"/><rect x="1341.8" y="666.9" width="83.1" height="100.6" fill="#5c7a8f"/><rect x="1341.8" y="775.4" width="83.1" height="100.6" fill="#6f8fa6"/><rect x="1432.9" y="124.0" width="83.1" height="100.6" fill="#8fb0c4"/><rect x="1432.9" y="232.6" width="83.1" height="100.6" fill="#8fb0c4"/><rect x="1432.9" y="341.1" width="83.1" height="100.6" fill="#8fb0c4"/><rect x="1432.9" y="449.7" width="83.1" height="100.6" fill="#8fb0c4"/><rect x="1432.9" y="558.3" width="83.1" height="100.6" fill="#8fb0c4"/><rect x="1432.9" y="666.9" width="83.1" height="100.6" fill="#5c7a8f"/><rect x="1432.9" y="775.4" width="83.1" height="100.6" fill="#5c7a8f"/><rect x="700" y="100" width="820" height="26" fill="#bfc6cb"/><rect x="1540" y="260" width="380" height="620" fill="#c9a27e"/><rect x="1544.0" y="264.0" width="87.0" height="95.3" fill="#4f6a7d"/><rect x="1544.0" y="367.3" width="87.0" height="95.3" fill="#3f5868"/><rect x="1544.0" y="470.7" width="87.0" height="95.3" fill="#6a8799"/><rect x="1544.0" y="574.0" width="87.0" height="95.3" fill="#3f5868"/><rect x="1544.0" y="677.3" width="87.0" height="95.3" fill="#6a8799"/><rect x="1544.0" y="780.7" width="87.0" height="95.3" fill="#6a8799"/><rect x="1639.0" y="264.0" width="87.0" height="95.3" fill="#6a8799"/><rect x="1639.0" y="367.3" width="87.0" height="95.3" fill="#6a8799"/><rect x="1639.0" y="470.7" width="87.0" height="95.3" fill="#3f5868"/><rect x="1639.0" y="574.0" width="87.0" height="95.3" fill="#3f5868"/><rect x="1639.0" y="677.3" width="87.0" height="95.3" fill="#6a8799"/><rect x="1639.0" y="780.7" width="87.0" height="95.3" fill="#3f5868"/><rect x="1734.0" y="264.0" width="87.0" height="95.3" fill="#4f6a7d"/><rect x="1734.0" y="367.3" width="87.0" height="95.3" fill="#6a8799"/><rect x="1734.0" y="470.7" width="87.0" height="95.3" fill="#6a8799"/><rect x="1734.0" y="574.0" width="87.0" height="95.3" fill="#4f6a7d"/><rect x="1734.0" y="677.3" width="87.0" height="95.3" fill="#6a8799"/><rect x="1734.0" y="780.7" width="87.0" height="95.3" fill="#3f5868"/><rect x="1829.0" y="264.0" width="87.0" height="95.3" fill="#3f5868"/><rect x="1829.0" y="367.3" width="87.0" height="95.3" fill="#4f6a7d"/><rect x="1829.0" y="470.7" width="87.0" height="95.3" fill="#3f5868"/><rect x="1829.0" y="574.0" width="87.0" height="95.3" fill="#4f6a7d"/><rect x="1829.0" y="677.3" width="87.0" height="95.3" fill="#6a8799"/><rect x="1829.0" y="780.7" width="87.0" height="95.3" fill="#4f6a7d"/><rect x="1471.0" y="744.2" width="31.2" height="155.8" fill="#4a3424"/><circle cx="1435.7" cy="714.3" r="83.5" fill="#3b7d3c"/><circle cx="1503.5" cy="656.5" r="113.8" fill="#4c8c45"/><circle cx="1557.6" cy="743.8" r="113.2" fill="#4c8c45"/><circle cx="1445.8" cy="641.6" r="87.6" fill="#2f6b34"/><rect x="1437.4" y="767.0" width="26.6" height="133.0" fill="#4a3424"/><circle cx="1409.1" cy="752.3" r="82.8" fill="#285c2c"/><circle cx="1410.1" cy="766.3" r="74.3" fill="#3b7d3c"/><circle cx="1511.9" cy="690.1" r="82.8" fill="#2f6b34"/><circle cx="1514.8" cy="741.9" r="97.2" fill="#2f6b34"/><rect x="1862.3" y="792.7" width="21.5" height="107.3" fill="#4a3424"/><circle cx="1931.7" cy="766.7" r="71.9" fill="#3b7d3c"/><circle cx="1838.3" cy="738.0" r="68.8" fill="#2f6b34"/><circle cx="1906.7" cy="777.6" r="72.8" fill="#3b7d3c"/><circle cx="1814.5" cy="730.1" r="78.3" fill="#2f6b34"/><rect x="1758.3" y="750.4" width="29.9" height="149.6" fill="#4a3424"/><circle cx="1692.5" cy="749.8" r="107.0" fill="#4c8c45"/><circle cx="1852.6" cy="736.5" r="90.5" fill="#2f6b34"/><circle cx="1813.0" cy="749.7" r="89.7" fill="#2f6b34"/><circle cx="1756.7" cy="750.2" r="95.7" fill="#3b7d3c"/><rect x="1728.1" y="759.9" width="28.0" height="140.1" fill="#4a3424"/><circle cx="1715.1" cy="742.7" r="84.9" fill="#2f6b34"/><circle cx="1711.3" cy="770.1" r="104.9" fill="#285c2c"/><circle cx="1802.9" cy="763.0" r="77.0" fill="#285c2c"/><circle cx="1682.5" cy="718.8" r="89.6" fill="#4c8c45"/><rect x="1882.0" y="775.1" width="25.0" height="124.9" fill="#4a3424"/><circle cx="1848.9" cy="733.6" r="67.6" fill="#285c2c"/><circle cx="1897.7" cy="744.4" r="78.3" fill="#4c8c45"/><circle cx="1874.5" cy="762.1" r="63.3" fill="#3b7d3c"/><circle cx="1900.6" cy="710.8" r="85.0" fill="#3b7d3c"/><rect x="1547.2" y="764.4" width="27.1" height="135.6" fill="#4a3424"/><circle cx="1549.6" cy="681.7" r="94.0" fill="#4c8c45"/><circle cx="1626.5" cy="766.6" r="90.9" fill="#4c8c45"/><circle cx="1485.7" cy="751.5" r="88.2" fill="#285c2c"/><circle cx="1623.8" cy="677.8" r="72.4" fill="#2f6b34"/><rect x="1490.8" y="798.9" width="20.2" height="101.1" fill="#4a3424"/><circle cx="1443.0" cy="777.4" r="74.4" fill="#2f6b34"/><circle cx="1457.7" cy="746.8" r="67.6" fill="#2f6b34"/><circle cx="1495.7" cy="806.9" r="61.2" fill="#285c2c"/><circle cx="1533.2" cy="761.6" r="61.1" fill="#2f6b34"/><rect x="1543.7" y="755.5" width="28.9" height="144.5" fill="#4a3424"/><circle cx="1638.1" cy="675.8" r="105.7" fill="#285c2c"/><circle cx="1494.5" cy="682.0" r="94.0" fill="#2f6b34"/><circle cx="1487.1" cy="688.8" r="95.6" fill="#285c2c"/><circle cx="1554.9" cy="766.9" r="74.9" fill="#3b7d3c"/><rect x="685.9" y="815.8" width="16.8" height="84.2" fill="#4a3424"/><circle cx="645.8" cy="785.8" r="44.0" fill="#2f6b34"/><circle cx="736.0" cy="808.8" r="58.2" fill="#3b7d3c"/><circle cx="729.2" cy="820.4" r="59.0" fill="#285c2c"/><circle cx="701.4" cy="781.6" r="50.7" fill="#3b7d3c"/><rect x="737.3" y="788.8" width="22.2" height="111.2" fill="#4a3424"/><circle cx="777.2" cy="770.1" r="73.2" fill="#285c2c"/><circle cx="798.3" cy="785.1" r="83.1" fill="#3b7d3c"/><circle cx="746.8" cy="794.5" r="82.7" fill="#3b7d3c"/><circle cx="693.8" cy="743.2" r="80.2" fill="#285c2c"/><rect x="808.4" y="770.2" width="26.0" height="129.8" fill="#4a3424"/><circle cx="864.9" cy="703.8" r="72.7" fill="#4c8c45"/><circle cx="761.5" cy="772.7" r="90.9" fill="#285c2c"/><circle cx="853.5" cy="735.8" r="79.3" fill="#4c8c45"/><circle cx="831.0" cy="768.7" r="73.7" fill="#285c2c"/><rect x="719.9" y="797.0" width="20.6" height="103.0" fill="#4a3424"/><circle cx="692.7" cy="773.9" r="57.4" fill="#4c8c45"/><circle cx="768.9" cy="754.5" r="69.1" fill="#4c8c45"/><circle cx="684.1" cy="752.2" r="75.2" fill="#2f6b34"/><circle cx="686.0" cy="759.1" r="52.0" fill="#285c2c"/><rect x="860.1" y="807.7" width="18.5" height="92.3" fill="#4a3424"/><circle cx="838.3" cy="811.7" r="62.3" fill="#2f6b34"/><circle cx="828.1" cy="789.5" r="46.5" fill="#4c8c45"/><circle cx="879.2" cy="798.2" r="49.1" fill="#3b7d3c"/><circle cx="892.5" cy="812.3" r="58.8" fill="#285c2c"/><rect y="880" width="1920" height="200" fill="#6d8f5a"/><rect y="930" width="1920" height="150" fill="#b9b2a4"/><g transform="translate(1290 430) scale(3.1)">
  <path d="M-60 200 Q-58 90 0 80 Q58 90 60 200 Z" fill="#1f5e3a"/>
  <rect x="-12" y="52" width="24" height="34" fill="#8d5a3b"/>
  <ellipse cx="0" cy="30" rx="26" ry="32" fill="#8d5a3b"/>
  <path d="M-28 30 Q-30 -8 0 -6 Q32 -8 28 34 Q22 6 0 8 Q-20 8 -28 30Z" fill="#1c120c"/>
</g><rect x="1300" y="700" width="170" height="210" rx="8" fill="#2c3e50" transform="rotate(-8 1385 805)"/><rect x="1310" y="712" width="150" height="186" rx="6" fill="#ecf0f1" transform="rotate(-8 1385 805)"/>
</svg>
